<svg version="1.1" id="Layer_1" xmlns="http://www.w3.org/2000/svg" xmlns:xlink="http://www.w3.org/1999/xlink" x="0px" y="0px"
	 width="100%" viewBox="0 0 225 225" enable-background="new 0 0 225 225" xml:space="preserve">
<path fill="#000000" opacity="1.000000" stroke="none" 
	d="
M127.000000,226.000000 
	C84.666672,226.000000 42.833340,226.000000 1.000006,226.000000 
	C1.000004,151.000000 1.000004,76.000015 1.000002,1.000016 
	C75.999992,1.000010 150.999985,1.000010 225.999969,1.000005 
	C225.999985,75.999985 225.999985,150.999969 226.000000,225.999969 
	C193.166672,226.000000 160.333328,226.000000 127.000000,226.000000 
M80.042374,168.600113 
	C80.343048,168.793030 80.643723,168.985947 81.096001,169.633530 
	C81.291199,169.935944 81.567398,170.064987 82.247002,170.542938 
	C82.806145,170.757614 83.365288,170.972275 83.920883,171.094986 
	C83.920883,171.094986 83.837173,171.133194 84.241348,171.712204 
	C89.161140,173.438644 94.080925,175.165085 99.663513,177.011047 
	C100.108765,176.967300 100.554008,176.923553 101.801003,177.099884 
	C109.536652,177.179764 117.385376,178.103088 124.973930,177.085770 
	C131.634598,176.192841 138.003571,173.124222 145.023056,170.501694 
	C146.431946,169.013245 147.840836,167.524780 149.964005,166.057556 
	C156.815475,163.657394 161.209061,155.472626 159.460098,147.698135 
	C159.014847,145.718826 157.384460,144.006119 156.922485,141.757324 
	C156.849411,137.848190 156.776352,133.939072 156.828873,129.272522 
	C156.736679,128.515396 156.644501,127.758263 156.729141,126.151497 
	C155.923050,119.153381 156.378815,111.805321 150.634613,105.805618 
	C150.150436,105.520447 149.666260,105.235275 149.579803,104.380219 
	C151.029739,103.566750 152.479675,102.753288 154.597931,102.047577 
	C161.218414,99.536987 167.985336,97.341522 174.389435,94.365311 
	C177.062454,93.123070 178.963821,90.220413 181.640579,88.433586 
	C182.407043,88.503830 183.457306,88.933640 183.895386,88.587852 
	C187.641449,85.630852 191.601486,82.839516 194.852371,79.390541 
	C198.023468,76.026192 200.435913,71.946754 203.181427,68.181259 
	C202.894623,67.763855 202.607819,67.346443 202.321014,66.929031 
	C195.884888,67.779884 189.061966,65.104454 182.220612,69.639877 
	C175.519089,72.355919 168.817551,75.071968 161.428833,77.954170 
	C153.610901,68.027290 142.871567,61.968189 131.995392,56.275711 
	C120.167892,50.085308 108.004639,50.294186 96.074348,56.269451 
	C92.082886,58.268562 88.174362,60.527164 84.519707,63.084160 
	C78.088760,67.583588 71.882355,72.403946 64.922417,76.886688 
	C61.647530,75.578094 58.372646,74.269501 54.617905,72.429489 
	C52.807980,71.749702 51.044453,70.804871 49.172886,70.477272 
	C47.773994,70.232407 46.235710,70.783897 44.310722,70.428947 
	C43.437901,69.606125 42.637550,68.175461 41.680229,68.061310 
	C36.351803,67.425995 30.985313,67.109924 24.397034,66.586555 
	C28.650675,75.491760 34.915195,80.650230 40.970722,85.903427 
	C42.978775,87.645409 45.643894,88.629982 48.655807,90.194405 
	C55.046726,97.136322 63.877987,99.493332 72.276619,102.596451 
	C73.233894,102.950134 74.673096,101.999489 76.058434,102.302765 
	C76.354584,103.850395 76.650742,105.398033 76.414116,106.999344 
	C76.312187,107.616127 76.210266,108.232910 75.593170,109.413734 
	C74.713287,111.057610 73.279045,112.627289 73.047424,114.357918 
	C71.915161,122.818390 71.059540,131.317612 70.256966,139.817398 
	C70.188026,140.547562 71.223396,141.381989 71.296730,142.675491 
	C70.329292,144.745560 68.848785,146.730255 68.487640,148.901184 
	C67.251335,156.332870 72.242668,164.787231 77.911835,166.553009 
	C78.580940,167.073669 79.250053,167.594315 79.951927,168.016968 
	C79.951927,168.016968 79.870644,168.080765 80.042374,168.600113 
z"/>
<path fill="#FBD333" opacity="1.000000" stroke="none" 
	d="
M71.745781,142.167984 
	C71.223396,141.381989 70.188026,140.547562 70.256966,139.817398 
	C71.059540,131.317612 71.915161,122.818390 73.047424,114.357918 
	C73.279045,112.627289 74.713287,111.057610 76.142502,109.098816 
	C77.403030,109.437851 78.405800,109.961365 78.768196,110.771378 
	C79.681808,112.813400 80.306862,114.984535 81.131393,117.387817 
	C81.797470,118.163017 82.379730,118.654327 83.024719,119.455933 
	C83.432976,121.230072 83.778511,122.693901 84.010101,124.410858 
	C83.344269,125.146843 82.792389,125.629715 81.940186,126.235931 
	C81.471191,126.955307 81.302521,127.551361 81.104416,128.104218 
	C81.074982,128.061005 81.179268,128.053467 80.861877,128.274246 
	C80.758324,130.644913 80.972153,132.794785 81.131699,134.939484 
	C81.077415,134.934311 81.140686,134.845474 81.108582,135.177368 
	C81.475883,135.967850 81.875290,136.426453 82.467957,136.978149 
	C82.878403,137.275909 83.008186,137.525925 83.142059,138.089203 
	C83.555870,138.528214 83.878174,138.699326 84.141190,138.887726 
	C84.081902,138.904999 84.119583,138.787384 84.205933,139.119675 
	C86.787636,141.558548 92.913460,141.774704 95.364990,139.415726 
	C98.358704,136.535049 99.281975,132.965332 97.094162,128.735870 
	C96.345551,128.304672 95.750137,128.155930 95.027985,127.716232 
	C93.950653,126.587296 93.000069,125.749313 91.992416,124.546021 
	C91.274628,122.471077 90.825699,120.945930 93.631485,121.013443 
	C96.418602,121.080498 99.209564,120.987991 102.396744,120.978889 
	C104.511848,120.423317 106.229042,119.854317 108.345360,119.284050 
	C109.538841,119.322105 110.333191,119.361435 111.403778,119.587044 
	C113.410545,119.650467 115.141090,119.527603 117.229424,119.330139 
	C118.074524,119.261444 118.561829,119.267357 119.155884,119.642258 
	C124.214134,120.392792 129.165833,120.771881 134.117020,121.157234 
	C135.797318,121.288017 138.853271,119.987663 136.805817,124.098190 
	C136.159836,124.579201 135.678268,124.832901 134.831589,125.083740 
	C129.922531,127.245064 129.137222,128.542007 130.853424,131.356476 
	C130.818665,132.115097 130.794342,132.547760 130.585327,133.165909 
	C130.628006,133.890701 130.855331,134.430023 131.043091,134.974030 
	C131.003525,134.978745 131.058105,134.920685 131.028595,135.296692 
	C133.092865,140.719528 137.430206,142.396408 141.978302,139.955170 
	C141.979782,139.993454 141.920166,139.945282 142.256851,139.973709 
	C143.383453,139.318192 144.173370,138.634232 144.979889,137.975845 
	C144.996490,138.001419 144.938675,137.981934 145.174255,137.871674 
	C145.564972,137.463287 145.720123,137.165176 145.945496,136.618469 
	C146.119766,136.232666 146.223846,136.095459 146.648636,135.889084 
	C149.241455,133.214401 149.096954,130.614532 146.978271,128.016602 
	C147.005356,128.013916 146.963486,128.049149 146.960571,127.735489 
	C146.593185,126.965263 146.228729,126.508698 145.908844,126.048172 
	C145.953415,126.044212 145.932281,126.131195 145.861328,125.878693 
	C145.523438,125.412338 145.256500,125.198479 144.997711,124.989044 
	C145.005859,124.993462 145.015656,125.009232 144.897003,124.775497 
	C144.474152,124.385780 144.169937,124.229805 143.909134,124.060356 
	C143.952545,124.046883 143.934525,124.136002 143.821747,123.875931 
	C143.363403,123.507767 143.017822,123.399681 142.693039,123.342484 
	C142.713821,123.393379 142.605209,123.410439 142.758255,123.040390 
	C144.268036,121.441010 145.624786,120.211685 146.990753,118.991180 
	C147.000000,119.000000 146.982605,118.981140 147.330383,118.937332 
	C147.962463,118.150543 148.246765,117.407562 148.567169,116.671356 
	C148.603287,116.678131 148.610809,116.605034 148.873016,116.662567 
	C149.219315,116.174019 149.303391,115.627930 149.411087,114.857597 
	C149.551712,114.345299 149.739410,114.114853 150.349121,113.812714 
	C153.849380,112.167336 153.711670,114.262291 154.076721,116.445526 
	C154.671463,120.002594 155.704330,123.486404 156.552322,127.001129 
	C156.644501,127.758263 156.736679,128.515396 156.537170,129.980423 
	C156.264099,135.615875 156.470871,140.647278 150.001816,141.998215 
	C149.999725,142.001999 149.989990,142.000122 149.621201,142.001297 
	C143.001526,144.389496 140.668137,149.877899 142.918839,157.252625 
	C142.975128,157.688614 142.992371,157.863663 142.998901,158.377808 
	C143.358078,159.467178 143.727951,160.217438 144.367340,161.162872 
	C146.174484,162.917465 147.712097,164.476883 149.249710,166.036316 
	C147.840836,167.524780 146.431946,169.013245 144.402771,170.733551 
	C140.848602,171.985382 137.974640,173.253494 134.969696,173.979202 
	C125.681992,176.222290 116.335175,177.815445 106.700378,176.152390 
	C104.895630,175.840881 102.904419,176.609604 100.999260,176.879822 
	C100.554008,176.923553 100.108765,176.967300 99.246155,176.602173 
	C93.831596,174.506577 88.834381,172.819885 83.837173,171.133194 
	C83.837173,171.133194 83.920883,171.094986 83.792465,170.850708 
	C83.084229,170.411163 82.504410,170.215912 81.924591,170.020676 
	C81.567398,170.064987 81.291199,169.935944 80.925171,169.151825 
	C80.459778,168.473648 80.165215,168.277206 79.870651,168.080765 
	C79.870644,168.080765 79.951927,168.016968 79.980049,167.727325 
	C80.280350,166.569336 80.552528,165.700958 80.834274,164.862381 
	C80.843842,164.892166 80.881096,164.841904 81.123398,164.783310 
	C81.678368,164.535141 81.837738,164.257538 81.824570,163.853851 
	C81.805328,163.815826 81.841316,163.738556 82.223991,163.787109 
	C87.911392,159.521667 87.471519,148.492523 81.550507,144.877441 
	C78.077271,143.849930 74.911530,143.008957 71.745781,142.167984 
z"/>
<path fill="#FBFBFA" opacity="1.000000" stroke="none" 
	d="
M65.581932,77.089920 
	C71.882355,72.403946 78.088760,67.583588 84.519707,63.084160 
	C88.174362,60.527164 92.082886,58.268562 96.074348,56.269451 
	C108.004639,50.294186 120.167892,50.085308 131.995392,56.275711 
	C142.871567,61.968189 153.610901,68.027290 162.033722,78.148758 
	C165.691727,86.324898 160.870010,96.623283 152.707886,99.103859 
	C151.978348,97.060188 151.689667,94.716225 150.450195,93.985886 
	C145.927612,91.321037 141.199799,88.910957 136.320694,86.983704 
	C133.834564,86.001678 130.861786,86.251717 128.082825,85.620422 
	C127.680878,84.539429 127.305092,83.782845 127.014160,82.673874 
	C126.989395,80.546310 126.879784,78.771141 126.882782,76.635605 
	C124.226326,70.692467 119.610336,66.247673 113.686874,66.413788 
	C108.023796,66.572594 102.877403,70.238190 100.120522,76.391327 
	C100.009018,79.517319 99.959236,82.251251 99.510193,84.985611 
	C93.142105,87.179535 87.221237,89.517784 81.188103,91.517258 
	C76.946083,92.923134 74.940033,95.492157 75.289856,99.701477 
	C72.467636,96.934677 68.634521,94.872498 67.521477,91.818855 
	C65.865974,87.276978 66.133049,82.034340 65.581932,77.089920 
z"/>
<path fill="#484343" opacity="1.000000" stroke="none" 
	d="
M81.047569,117.103912 
	C80.306862,114.984535 79.681808,112.813400 78.768196,110.771378 
	C78.405800,109.961365 77.403030,109.437851 76.400085,108.816795 
	C76.210266,108.232910 76.312187,107.616127 77.065613,106.985008 
	C79.301842,105.816223 80.886581,104.661781 83.193794,102.981026 
	C84.788651,103.822159 86.954727,105.148239 89.274162,106.100983 
	C90.256081,106.504318 91.895790,106.578773 92.658493,106.017395 
	C95.566681,103.876816 98.239349,101.416275 101.460556,99.037201 
	C110.860779,98.872139 119.800438,98.745148 128.838043,99.008492 
	C130.835175,104.102531 134.204498,101.232391 137.414368,100.970093 
	C138.458252,100.956520 139.154053,100.949829 140.151825,101.186356 
	C141.570587,107.047493 146.024704,104.391335 149.182083,104.950104 
	C149.666260,105.235275 150.150436,105.520447 150.826141,106.316696 
	C150.677719,109.199181 150.337769,111.570587 149.997833,113.942001 
	C149.739410,114.114853 149.551712,114.345299 149.232391,115.090790 
	C148.890335,115.900505 148.750565,116.252769 148.610809,116.605034 
	C148.610809,116.605034 148.603287,116.678131 148.288071,116.772491 
	C147.642776,117.571609 147.312698,118.276375 146.982605,118.981140 
	C146.982605,118.981140 147.000000,119.000000 146.624725,119.003815 
	C145.516495,119.010071 144.783539,119.012512 143.580994,119.014816 
	C138.397919,119.023415 133.684433,119.032150 128.522903,119.012558 
	C125.393127,118.932159 122.711388,118.880096 119.717857,118.561592 
	C106.619896,117.898071 93.833733,117.500992 81.047569,117.103912 
z"/>
<path fill="#F4CF38" opacity="1.000000" stroke="none" 
	d="
M152.712418,99.544044 
	C160.870010,96.623283 165.691727,86.324898 162.377319,78.065681 
	C168.817551,75.071968 175.519089,72.355919 182.661270,70.118698 
	C182.473297,76.422592 181.844681,82.247665 181.216049,88.072723 
	C178.963821,90.220413 177.062454,93.123070 174.389435,94.365311 
	C167.985336,97.341522 161.218414,99.536987 154.264832,101.743164 
	C153.525284,100.807190 153.118851,100.175613 152.712418,99.544044 
z"/>
<path fill="#F4CF37" opacity="1.000000" stroke="none" 
	d="
M65.252174,76.988304 
	C66.133049,82.034340 65.865974,87.276978 67.521477,91.818855 
	C68.634521,94.872498 72.467636,96.934677 75.294334,99.997131 
	C75.632851,100.920441 75.760841,101.287041 75.888832,101.653641 
	C74.673096,101.999489 73.233894,102.950134 72.276619,102.596451 
	C63.877987,99.493332 55.046726,97.136322 48.266422,89.767532 
	C47.532051,88.366081 47.187061,87.391495 46.892746,86.003235 
	C46.474583,84.466652 46.005749,83.343758 45.576317,82.162987 
	C45.615723,82.105118 45.721954,82.196342 45.812252,81.733368 
	C45.902550,78.163063 45.902550,75.055725 45.902550,71.528778 
	C49.343357,72.064674 52.220558,72.512794 55.097759,72.960907 
	C58.372646,74.269501 61.647530,75.578094 65.252174,76.988304 
z"/>
<path fill="#494442" opacity="1.000000" stroke="none" 
	d="
M75.973633,101.978203 
	C75.760841,101.287041 75.632851,100.920441 75.500381,100.258179 
	C74.940033,95.492157 76.946083,92.923134 81.188103,91.517258 
	C87.221237,89.517784 93.142105,87.179535 99.477188,85.024353 
	C99.843437,85.062691 99.886894,85.156303 99.923950,85.549179 
	C99.307991,91.976120 104.040138,92.138069 108.031342,93.440674 
	C108.383118,93.864738 108.653999,94.020912 109.064850,94.330414 
	C109.377991,94.822243 109.655807,94.960526 110.060707,95.220154 
	C110.140388,95.654427 110.161331,95.830017 109.877777,96.278488 
	C107.353493,96.713699 105.104988,96.721146 102.929817,97.124268 
	C102.191383,97.261116 101.637970,98.396294 101.000000,99.075272 
	C98.239349,101.416275 95.566681,103.876816 92.658493,106.017395 
	C91.895790,106.578773 90.256081,106.504318 89.274162,106.100983 
	C86.954727,105.148239 84.788651,103.822159 83.193794,102.981026 
	C80.886581,104.661781 79.301842,105.816223 77.332001,106.958168 
	C76.650742,105.398033 76.354584,103.850395 75.973633,101.978203 
M91.483978,100.582687 
	C91.483978,100.582687 91.422829,100.477921 91.483978,100.582687 
z"/>
<path fill="#4B4645" opacity="1.000000" stroke="none" 
	d="
M152.707886,99.103859 
	C153.118851,100.175613 153.525284,100.807190 153.930664,101.689293 
	C152.479675,102.753288 151.029739,103.566750 149.380951,104.665161 
	C146.024704,104.391335 141.570587,107.047493 140.022812,100.915367 
	C138.749969,100.593102 137.908127,100.785034 137.066284,100.976974 
	C134.204498,101.232391 130.835175,104.102531 128.748199,98.690125 
	C125.957817,97.330505 123.332176,96.753258 120.776054,95.953751 
	C120.365822,95.825439 120.266182,94.704147 120.374649,94.001831 
	C123.760147,91.817070 127.644768,90.455849 128.108978,85.944832 
	C130.861786,86.251717 133.834564,86.001678 136.320694,86.983704 
	C141.199799,88.910957 145.927612,91.321037 150.450195,93.985886 
	C151.689667,94.716225 151.978348,97.060188 152.707886,99.103859 
z"/>
<path fill="#DC4C2C" opacity="1.000000" stroke="none" 
	d="
M71.521255,142.421738 
	C74.911530,143.008957 78.077271,143.849930 81.723213,145.203644 
	C86.735527,151.817245 85.046371,157.793137 81.841316,163.738556 
	C81.841316,163.738556 81.805328,163.815826 81.552414,163.862427 
	C81.160027,164.219986 81.020569,164.530945 80.881104,164.841904 
	C80.881096,164.841904 80.843842,164.892166 80.609360,164.832733 
	C79.653267,165.174072 78.931648,165.574860 78.210037,165.975632 
	C72.242668,164.787231 67.251335,156.332870 68.487640,148.901184 
	C68.848785,146.730255 70.329292,144.745560 71.521255,142.421738 
z"/>
<path fill="#DD4B2B" opacity="1.000000" stroke="none" 
	d="
M143.009598,158.038696 
	C142.992371,157.863663 142.975128,157.688614 143.094833,156.943909 
	C144.449265,152.789001 145.513977,149.140488 146.959457,145.649643 
	C147.537308,144.254120 148.954727,143.206238 149.989990,142.000122 
	C149.989990,142.000122 149.999725,142.001999 150.448944,142.010605 
	C152.698303,142.069778 154.498444,142.120331 156.298599,142.170898 
	C157.384460,144.006119 159.014847,145.718826 159.460098,147.698135 
	C161.209061,155.472626 156.815475,163.657394 149.606857,166.046936 
	C147.712097,164.476883 146.174484,162.917465 144.408539,160.895889 
	C143.790009,159.635391 143.399811,158.837036 143.009598,158.038696 
z"/>
<path fill="#201F19" opacity="1.000000" stroke="none" 
	d="
M46.842072,86.416916 
	C47.187061,87.391495 47.532051,88.366081 47.942822,89.650749 
	C45.643894,88.629982 42.978775,87.645409 40.970722,85.903427 
	C34.915195,80.650230 28.650675,75.491760 24.397034,66.586555 
	C30.985313,67.109924 36.351803,67.425995 41.680229,68.061310 
	C42.637550,68.175461 43.437901,69.606125 44.581226,71.080811 
	C45.141804,75.220558 45.431881,78.708450 45.721954,82.196342 
	C45.721954,82.196342 45.615723,82.105118 45.581429,82.537804 
	C45.978779,84.119301 46.410427,85.268105 46.842072,86.416916 
z"/>
<path fill="#1F1E1A" opacity="1.000000" stroke="none" 
	d="
M181.428314,88.253159 
	C181.844681,82.247665 182.473297,76.422592 183.072693,70.180069 
	C189.061966,65.104454 195.884888,67.779884 202.321014,66.929031 
	C202.607819,67.346443 202.894623,67.763855 203.181427,68.181259 
	C200.435913,71.946754 198.023468,76.026192 194.852371,79.390541 
	C191.601486,82.839516 187.641449,85.630852 183.895386,88.587852 
	C183.457306,88.933640 182.407043,88.503830 181.428314,88.253159 
z"/>
<path fill="#DCC250" opacity="1.000000" stroke="none" 
	d="
M101.400131,176.989853 
	C102.904419,176.609604 104.895630,175.840881 106.700378,176.152390 
	C116.335175,177.815445 125.681992,176.222290 134.969696,173.979202 
	C137.974640,173.253494 140.848602,171.985382 144.141922,170.990997 
	C138.003571,173.124222 131.634598,176.192841 124.973930,177.085770 
	C117.385376,178.103088 109.536652,177.179764 101.400131,176.989853 
z"/>
<path fill="#EEC34B" opacity="1.000000" stroke="none" 
	d="
M150.349121,113.812714 
	C150.337769,111.570587 150.677719,109.199181 151.083862,106.430725 
	C156.378815,111.805321 155.923050,119.153381 156.640732,126.576309 
	C155.704330,123.486404 154.671463,120.002594 154.076721,116.445526 
	C153.711670,114.262291 153.849380,112.167336 150.349121,113.812714 
z"/>
<path fill="#E4C956" opacity="1.000000" stroke="none" 
	d="
M45.812256,81.733368 
	C45.431881,78.708450 45.141804,75.220558 44.805611,71.356720 
	C46.235710,70.783897 47.773994,70.232407 49.172886,70.477272 
	C51.044453,70.804871 52.807980,71.749702 54.857834,72.695206 
	C52.220558,72.512794 49.343357,72.064674 45.902550,71.528778 
	C45.902550,75.055725 45.902550,78.163063 45.812256,81.733368 
z"/>
<path fill="#E0C351" opacity="1.000000" stroke="none" 
	d="
M84.039261,171.422699 
	C88.834381,172.819885 93.831596,174.506577 98.914764,176.542419 
	C94.080925,175.165085 89.161140,173.438644 84.039261,171.422699 
z"/>
<path fill="#EEC34B" opacity="1.000000" stroke="none" 
	d="
M156.610535,141.964111 
	C154.498444,142.120331 152.698303,142.069778 150.451019,142.006821 
	C156.470871,140.647278 156.264099,135.615875 156.474365,130.359131 
	C156.776352,133.939072 156.849411,137.848190 156.610535,141.964111 
z"/>
<path fill="#EEC34B" opacity="1.000000" stroke="none" 
	d="
M78.060936,166.264313 
	C78.931648,165.574860 79.653267,165.174072 80.599792,164.802948 
	C80.552528,165.700958 80.280350,166.569336 79.963669,167.776337 
	C79.250053,167.594315 78.580940,167.073669 78.060936,166.264313 
z"/>
<path fill="#E0C351" opacity="1.000000" stroke="none" 
	d="
M82.085800,170.281799 
	C82.504410,170.215912 83.084229,170.411163 83.794243,170.896667 
	C83.365288,170.972275 82.806145,170.757614 82.085800,170.281799 
z"/>
<path fill="#E0C351" opacity="1.000000" stroke="none" 
	d="
M79.956512,168.340439 
	C80.165215,168.277206 80.459778,168.473648 80.849365,168.924484 
	C80.643723,168.985947 80.343048,168.793030 79.956512,168.340439 
z"/>
<path fill="#22211A" opacity="1.000000" stroke="none" 
	d="
M135.196686,125.086609 
	C135.678268,124.832901 136.159836,124.579201 137.181671,124.095718 
	C139.349701,123.714104 140.977448,123.562271 142.605209,123.410431 
	C142.605209,123.410439 142.713821,123.393379 142.818329,123.583382 
	C143.260056,123.894257 143.597290,124.015129 143.934525,124.136002 
	C143.934525,124.136002 143.952545,124.046883 144.019562,124.298767 
	C144.396286,124.703514 144.705963,124.856369 145.015656,125.009232 
	C145.015656,125.009232 145.005859,124.993462 145.082642,125.235985 
	C145.417038,125.696068 145.674652,125.913628 145.932281,126.131195 
	C145.932281,126.131195 145.953415,126.044212 145.967133,126.336174 
	C146.308380,127.101807 146.635941,127.575478 146.963486,128.049149 
	C146.963486,128.049149 147.005356,128.013916 146.989227,128.431641 
	C146.758041,131.218994 146.542984,133.588623 146.327942,135.958252 
	C146.223846,136.095459 146.119766,136.232666 145.709213,136.722122 
	C145.248047,137.376892 145.093369,137.679413 144.938675,137.981934 
	C144.938675,137.981934 144.996490,138.001419 144.688080,138.077332 
	C143.559830,138.750595 142.740005,139.347946 141.920166,139.945282 
	C141.920166,139.945282 141.979782,139.993454 141.645386,139.947632 
	C137.070251,139.935715 133.772247,138.029099 131.058105,134.920685 
	C131.058105,134.920685 131.003525,134.978745 131.039795,134.635788 
	C130.974030,133.855362 130.872025,133.417892 130.770004,132.980423 
	C130.794342,132.547760 130.818665,132.115097 131.131500,131.309052 
	C131.597275,130.874084 131.774551,130.812500 132.354477,130.851898 
	C134.567169,131.135941 136.414627,131.581039 138.162933,131.331528 
	C138.644974,131.262741 139.468155,128.589401 139.015259,128.048462 
	C138.180878,127.051888 136.517044,126.749748 135.193268,125.890335 
	C135.190689,125.443825 135.193695,125.265213 135.196686,125.086609 
z"/>
<path fill="#211F18" opacity="1.000000" stroke="none" 
	d="
M95.154709,128.007187 
	C95.750137,128.155930 96.345551,128.304672 97.053009,129.152557 
	C97.958626,134.822556 95.342445,137.752762 90.986000,138.977036 
	C88.881187,139.568542 86.419617,138.890564 84.119583,138.787384 
	C84.119583,138.787384 84.081902,138.904999 84.038536,138.631195 
	C83.680298,138.178711 83.365425,138.000015 83.050552,137.821335 
	C83.008186,137.525925 82.878403,137.275909 82.401314,136.683960 
	C81.807838,135.812943 81.474258,135.329208 81.140686,134.845474 
	C81.140686,134.845474 81.077415,134.934311 81.111328,134.507568 
	C81.156578,132.071701 81.167923,130.062576 81.179268,128.053467 
	C81.179268,128.053467 81.074982,128.061005 81.349205,127.928741 
	C81.829117,127.235176 82.034813,126.673882 82.240501,126.112595 
	C82.792389,125.629715 83.344269,125.146843 84.365517,124.336517 
	C86.999550,123.399155 89.374130,121.328300 90.605133,125.071289 
	C90.024200,127.215179 89.612160,129.179657 89.677612,131.128113 
	C89.690079,131.499420 92.145012,132.388870 92.514137,132.036041 
	C93.644905,130.955231 94.309082,129.386292 95.154709,128.007187 
z"/>
<path fill="#22211A" opacity="1.000000" stroke="none" 
	d="
M81.131393,117.387817 
	C93.833733,117.500992 106.619896,117.898071 119.459633,118.645065 
	C119.358521,119.087738 119.203827,119.180511 119.049141,119.273270 
	C118.561829,119.267357 118.074524,119.261444 116.828773,119.228607 
	C114.422737,119.268036 112.775146,119.334396 111.127548,119.400757 
	C110.333191,119.361435 109.538841,119.322105 107.940689,119.150055 
	C105.423706,119.057686 103.710518,119.098053 101.533325,119.072540 
	C95.033554,119.052994 88.997765,119.099312 82.961983,119.145630 
	C82.379730,118.654327 81.797470,118.163017 81.131393,117.387817 
z"/>
<path fill="#EBD164" opacity="1.000000" stroke="none" 
	d="
M83.024719,119.455933 
	C88.997765,119.099312 95.033554,119.052994 101.534332,119.377274 
	C101.999161,120.153732 101.999001,120.559593 101.998840,120.965462 
	C99.209564,120.987991 96.418602,121.080498 93.631485,121.013443 
	C90.825699,120.945930 91.274628,122.471077 91.714233,124.568901 
	C91.308708,124.933495 91.124298,124.909904 90.939896,124.886314 
	C89.374130,121.328300 86.999550,123.399155 84.479462,124.083405 
	C83.778511,122.693901 83.432976,121.230072 83.024719,119.455933 
z"/>
<path fill="#E9D25D" opacity="1.000000" stroke="none" 
	d="
M119.155884,119.642258 
	C119.203827,119.180511 119.358521,119.087738 119.771431,118.911499 
	C122.711388,118.880096 125.393127,118.932159 128.748703,119.378334 
	C134.298569,119.519951 139.174576,119.267456 144.050598,119.014961 
	C144.783539,119.012512 145.516495,119.010071 146.615479,118.994995 
	C145.624786,120.211685 144.268036,121.441010 142.758255,123.040382 
	C140.977448,123.562271 139.349701,123.714104 137.346085,123.868416 
	C138.853271,119.987663 135.797318,121.288017 134.117020,121.157234 
	C129.165833,120.771881 124.214134,120.392792 119.155884,119.642258 
z"/>
<path fill="#DEC24D" opacity="1.000000" stroke="none" 
	d="
M84.205933,139.119675 
	C86.419617,138.890564 88.881187,139.568542 90.986000,138.977036 
	C95.342445,137.752762 97.958626,134.822556 97.206207,129.435013 
	C99.281975,132.965332 98.358704,136.535049 95.364990,139.415726 
	C92.913460,141.774704 86.787636,141.558548 84.205933,139.119675 
z"/>
<path fill="#FBF7F5" opacity="1.000000" stroke="none" 
	d="
M90.605133,125.071289 
	C91.124298,124.909904 91.308708,124.933495 91.771301,124.934204 
	C93.000069,125.749313 93.950653,126.587296 95.027977,127.716232 
	C94.309082,129.386292 93.644905,130.955231 92.514137,132.036041 
	C92.145012,132.388870 89.690079,131.499420 89.677612,131.128113 
	C89.612160,129.179657 90.024200,127.215179 90.605133,125.071289 
z"/>
<path fill="#EEC34B" opacity="1.000000" stroke="none" 
	d="
M149.621185,142.001297 
	C148.954727,143.206238 147.537308,144.254120 146.959457,145.649643 
	C145.513977,149.140488 144.449265,152.789001 143.055771,156.682983 
	C140.668137,149.877899 143.001526,144.389496 149.621185,142.001297 
z"/>
<path fill="#EEC34B" opacity="1.000000" stroke="none" 
	d="
M82.223991,163.787109 
	C85.046371,157.793137 86.735527,151.817245 82.030701,145.390182 
	C87.471519,148.492523 87.911392,159.521667 82.223991,163.787109 
z"/>
<path fill="#E0C351" opacity="1.000000" stroke="none" 
	d="
M131.028595,135.296692 
	C133.772247,138.029099 137.070251,139.935715 141.643921,139.909332 
	C137.430206,142.396408 133.092865,140.719528 131.028595,135.296692 
z"/>
<path fill="#E0C351" opacity="1.000000" stroke="none" 
	d="
M131.951828,130.750900 
	C131.774551,130.812500 131.597275,130.874084 131.141937,130.983093 
	C129.137222,128.542007 129.922531,127.245064 134.831589,125.083740 
	C135.193695,125.265213 135.190689,125.443825 135.018677,126.188171 
	C133.883743,128.086227 132.917786,129.418564 131.951828,130.750900 
z"/>
<path fill="#E9D25D" opacity="1.000000" stroke="none" 
	d="
M102.396744,120.978889 
	C101.999001,120.559593 101.999161,120.153732 101.998322,119.443138 
	C103.710518,119.098053 105.423706,119.057686 107.541565,119.151321 
	C106.229042,119.854317 104.511848,120.423317 102.396744,120.978889 
z"/>
<path fill="#E9D25D" opacity="1.000000" stroke="none" 
	d="
M146.648621,135.889084 
	C146.542984,133.588623 146.758041,131.218994 146.962128,128.434326 
	C149.096954,130.614532 149.241455,133.214401 146.648621,135.889084 
z"/>
<path fill="#DEC24D" opacity="1.000000" stroke="none" 
	d="
M80.861877,128.274246 
	C81.167923,130.062576 81.156578,132.071701 81.165604,134.512741 
	C80.972153,132.794785 80.758324,130.644913 80.861877,128.274246 
z"/>
<path fill="#E9D25D" opacity="1.000000" stroke="none" 
	d="
M111.403778,119.587036 
	C112.775146,119.334396 114.422737,119.268036 116.470985,119.303207 
	C115.141090,119.527603 113.410545,119.650467 111.403778,119.587036 
z"/>
<path fill="#E0C351" opacity="1.000000" stroke="none" 
	d="
M142.256851,139.973709 
	C142.740005,139.347946 143.559830,138.750595 144.671478,138.051758 
	C144.173370,138.634232 143.383453,139.318192 142.256851,139.973709 
z"/>
<path fill="#EEC34B" opacity="1.000000" stroke="none" 
	d="
M142.998901,158.377808 
	C143.399811,158.837036 143.790009,159.635391 144.139008,160.700714 
	C143.727951,160.217438 143.358078,159.467178 142.998901,158.377808 
z"/>
<path fill="#E9D25D" opacity="1.000000" stroke="none" 
	d="
M147.330383,118.937332 
	C147.312698,118.276375 147.642776,117.571609 148.251953,116.765717 
	C148.246765,117.407562 147.962463,118.150543 147.330383,118.937332 
z"/>
<path fill="#E9D25D" opacity="1.000000" stroke="none" 
	d="
M146.960571,127.735489 
	C146.635941,127.575478 146.308380,127.101807 145.922546,126.340134 
	C146.228729,126.508698 146.593185,126.965263 146.960571,127.735489 
z"/>
<path fill="#DEC24D" opacity="1.000000" stroke="none" 
	d="
M81.108582,135.177368 
	C81.474258,135.329208 81.807838,135.812943 82.208054,136.590866 
	C81.875290,136.426453 81.475883,135.967850 81.108582,135.177368 
z"/>
<path fill="#E0C351" opacity="1.000000" stroke="none" 
	d="
M130.585327,133.165909 
	C130.872025,133.417892 130.974030,133.855362 131.079346,134.631073 
	C130.855331,134.430023 130.628006,133.890701 130.585327,133.165909 
z"/>
<path fill="#DEC24D" opacity="1.000000" stroke="none" 
	d="
M81.940186,126.235924 
	C82.034813,126.673882 81.829117,127.235176 81.378639,127.971939 
	C81.302521,127.551361 81.471191,126.955307 81.940186,126.235924 
z"/>
<path fill="#E9D25D" opacity="1.000000" stroke="none" 
	d="
M148.873016,116.662567 
	C148.750565,116.252769 148.890335,115.900505 149.208771,115.315048 
	C149.303391,115.627930 149.219315,116.174019 148.873016,116.662567 
z"/>
<path fill="#DEC24D" opacity="1.000000" stroke="none" 
	d="
M83.142059,138.089203 
	C83.365425,138.000015 83.680298,138.178711 84.097824,138.613922 
	C83.878174,138.699326 83.555870,138.528214 83.142059,138.089203 
z"/>
<path fill="#E0C351" opacity="1.000000" stroke="none" 
	d="
M145.174255,137.871674 
	C145.093369,137.679413 145.248047,137.376892 145.639008,136.970718 
	C145.720123,137.165176 145.564972,137.463287 145.174255,137.871674 
z"/>
<path fill="#E9D25D" opacity="1.000000" stroke="none" 
	d="
M145.861328,125.878693 
	C145.674652,125.913628 145.417038,125.696068 145.074478,125.231567 
	C145.256500,125.198479 145.523438,125.412338 145.861328,125.878693 
z"/>
<path fill="#EEC34B" opacity="1.000000" stroke="none" 
	d="
M81.123398,164.783310 
	C81.020569,164.530945 81.160027,164.219986 81.571648,163.900452 
	C81.837738,164.257538 81.678368,164.535141 81.123398,164.783310 
z"/>
<path fill="#E9D25D" opacity="1.000000" stroke="none" 
	d="
M144.897003,124.775497 
	C144.705963,124.856369 144.396286,124.703514 143.976166,124.312241 
	C144.169937,124.229805 144.474152,124.385780 144.897003,124.775497 
z"/>
<path fill="#E9D25D" opacity="1.000000" stroke="none" 
	d="
M143.821747,123.875931 
	C143.597290,124.015129 143.260056,123.894257 142.797546,123.532486 
	C143.017822,123.399681 143.363403,123.507767 143.821747,123.875931 
z"/>
<path fill="#C4A24B" opacity="1.000000" stroke="none" 
	d="
M110.182266,96.005600 
	C110.161331,95.830017 110.140388,95.654427 110.067307,94.983528 
	C110.015167,94.488228 110.027069,94.014595 110.369217,93.848816 
	C114.344406,90.210854 113.449814,79.718834 109.283897,77.467987 
	C108.780968,77.196251 108.024109,77.438782 107.404411,77.331009 
	C104.992760,76.911591 102.588966,76.447029 100.182243,75.999268 
	C102.877403,70.238190 108.023796,66.572594 113.686874,66.413788 
	C119.610336,66.247673 124.226326,70.692467 126.528427,76.636169 
	C123.711395,77.324188 121.361328,77.651283 118.759232,77.985611 
	C118.339218,77.995041 118.171234,77.997223 117.754059,78.164993 
	C117.337646,78.890831 117.170441,79.451073 117.002327,80.384247 
	C117.004547,81.503021 117.007683,82.248863 116.835381,83.326553 
	C114.847122,86.515236 113.273491,89.362587 116.994720,92.355057 
	C116.640862,97.768951 112.125969,94.228149 110.182266,96.005600 
z"/>
<path fill="#C0A057" opacity="1.000000" stroke="none" 
	d="
M100.120522,76.391327 
	C102.588966,76.447029 104.992760,76.911591 107.404411,77.331009 
	C108.024109,77.438782 108.780968,77.196251 109.283897,77.467987 
	C113.449814,79.718834 114.344406,90.210854 110.260567,93.680878 
	C109.526894,93.823875 109.244026,93.969017 108.961159,94.114166 
	C108.653999,94.020912 108.383118,93.864738 108.057404,93.015831 
	C107.748627,86.834641 106.604134,85.810509 99.886894,85.156303 
	C99.886894,85.156303 99.843437,85.062691 99.876450,85.023941 
	C99.959236,82.251251 100.009018,79.517319 100.120522,76.391327 
z"/>
<path fill="#B69853" opacity="1.000000" stroke="none" 
	d="
M119.011269,77.978371 
	C121.361328,77.651283 123.711395,77.324188 126.415817,76.996536 
	C126.879784,78.771141 126.989395,80.546310 126.707497,82.822433 
	C125.010666,84.966003 123.789719,86.686440 122.370949,88.224373 
	C121.394791,89.282509 120.144302,90.087563 119.008453,91.001472 
	C119.000465,90.997208 118.993973,90.983536 119.025902,90.662804 
	C120.456635,86.730888 121.855446,83.119705 123.329247,79.314926 
	C122.419472,79.033318 120.715370,78.505844 119.011269,77.978371 
z"/>
<path fill="#BEA155" opacity="1.000000" stroke="none" 
	d="
M119.016434,91.005737 
	C120.144302,90.087563 121.394791,89.282509 122.370949,88.224373 
	C123.789719,86.686440 125.010666,84.966003 126.622643,83.174828 
	C127.305092,83.782845 127.680878,84.539429 128.082825,85.620422 
	C127.644768,90.455849 123.760147,91.817070 120.247665,93.702721 
	C119.518150,92.631020 119.267296,91.818382 119.016434,91.005737 
z"/>
<path fill="#B69A5F" opacity="1.000000" stroke="none" 
	d="
M119.008453,91.001472 
	C119.267296,91.818382 119.518150,92.631020 119.895981,93.742775 
	C120.266182,94.704147 120.365822,95.825439 120.776054,95.953751 
	C123.332176,96.753258 125.957817,97.330505 128.650253,98.299789 
	C119.800438,98.745148 110.860779,98.872139 101.460564,99.037201 
	C101.637970,98.396294 102.191383,97.261116 102.929817,97.124268 
	C105.104988,96.721146 107.353493,96.713699 109.877777,96.278488 
	C112.125969,94.228149 116.640862,97.768951 117.106552,92.139076 
	C117.414970,91.298805 117.673813,91.110527 118.242088,91.001083 
	C118.659859,90.993950 118.826920,90.988739 118.993973,90.983536 
	C118.993973,90.983536 119.000465,90.997208 119.008453,91.001472 
z"/>
<path fill="#2F2100" opacity="1.000000" stroke="none" 
	d="
M143.580994,119.014816 
	C139.174576,119.267456 134.298569,119.519951 129.196747,119.406662 
	C133.684433,119.032150 138.397919,119.023415 143.580994,119.014816 
z"/>
<path fill="#B69A5F" opacity="1.000000" stroke="none" 
	d="
M137.414368,100.970085 
	C137.908127,100.785034 138.749969,100.593102 139.720825,100.672150 
	C139.154053,100.949829 138.458252,100.956520 137.414368,100.970085 
z"/>
<path fill="#E4C956" opacity="1.000000" stroke="none" 
	d="
M46.892746,86.003235 
	C46.410427,85.268105 45.978779,84.119301 45.542023,82.595673 
	C46.005749,83.343758 46.474583,84.466652 46.892746,86.003235 
z"/>
<path fill="#BEA155" opacity="1.000000" stroke="none" 
	d="
M99.923950,85.549179 
	C106.604134,85.810509 107.748627,86.834641 107.940247,92.810867 
	C104.040138,92.138069 99.307991,91.976120 99.923950,85.549179 
z"/>
<path fill="#B69A5F" opacity="1.000000" stroke="none" 
	d="
M109.064850,94.330414 
	C109.244026,93.969017 109.526894,93.823875 109.918411,93.846664 
	C110.027069,94.014595 110.015167,94.488228 110.008575,94.724854 
	C109.655807,94.960526 109.377991,94.822243 109.064850,94.330414 
z"/>
<path fill="#484343" opacity="1.000000" stroke="none" 
	d="
M91.453400,100.530304 
	C91.422829,100.477921 91.483978,100.582687 91.453400,100.530304 
z"/>
<path fill="#FBF7F5" opacity="1.000000" stroke="none" 
	d="
M132.354477,130.851898 
	C132.917786,129.418564 133.883743,128.086227 135.024292,126.456070 
	C136.517044,126.749748 138.180878,127.051888 139.015259,128.048462 
	C139.468155,128.589401 138.644974,131.262741 138.162933,131.331528 
	C136.414627,131.581039 134.567169,131.135941 132.354477,130.851898 
z"/>
<path fill="#BEA155" opacity="1.000000" stroke="none" 
	d="
M119.025902,90.662804 
	C118.826920,90.988739 118.659859,90.993950 118.102081,90.667892 
	C117.477852,87.889313 117.244331,85.442009 117.010811,82.994713 
	C117.007683,82.248863 117.004547,81.503021 117.249344,80.216225 
	C117.665932,79.116653 117.834595,78.558029 118.003250,77.999405 
	C118.171234,77.997223 118.339218,77.995041 118.759232,77.985611 
	C120.715370,78.505844 122.419472,79.033318 123.329247,79.314926 
	C121.855446,83.119705 120.456635,86.730888 119.025902,90.662804 
z"/>
<path fill="#B69853" opacity="1.000000" stroke="none" 
	d="
M116.835381,83.326553 
	C117.244331,85.442009 117.477852,87.889313 117.851379,90.669800 
	C117.673813,91.110527 117.414970,91.298805 117.103043,91.783813 
	C113.273491,89.362587 114.847122,86.515236 116.835381,83.326553 
z"/>
<path fill="#B69853" opacity="1.000000" stroke="none" 
	d="
M117.754059,78.164993 
	C117.834595,78.558029 117.665932,79.116653 117.250252,79.843292 
	C117.170441,79.451073 117.337646,78.890831 117.754059,78.164993 
z"/>
</svg>