<svg width="1600" height="690" viewBox="0 0 1600 690" fill="none" xmlns="http://www.w3.org/2000/svg">
<g clip-path="url(#clip0_4_2)">
<rect width="1600" height="690" fill="#BCD1FF"/>
<path d="M258.5 132C341.619 132 409 64.6189 409 -18.5C409 -101.619 341.619 -169 258.5 -169C175.381 -169 108 -101.619 108 -18.5C108 64.6189 175.381 132 258.5 132Z" fill="#FBD206"/>
<path d="M408.5 -30.5C408.5 67.8067 328.807 147.5 230.5 147.5C132.193 147.5 52.5 67.8067 52.5 -30.5C52.5 -128.807 132.193 -208.5 230.5 -208.5C328.807 -208.5 408.5 -128.807 408.5 -30.5Z" stroke="#000022"/>
<path d="M531.5 838C614.619 838 682 770.619 682 687.5C682 604.381 614.619 537 531.5 537C448.381 537 381 604.381 381 687.5C381 770.619 448.381 838 531.5 838Z" fill="#FBD206"/>
<path d="M715.5 696.5C715.5 788.732 640.732 863.5 548.5 863.5C456.268 863.5 381.5 788.732 381.5 696.5C381.5 604.268 456.268 529.5 548.5 529.5C640.732 529.5 715.5 604.268 715.5 696.5Z" stroke="#000022"/>
</g>
<defs>
<clipPath id="clip0_4_2">
<rect width="1600" height="690" fill="white"/>
</clipPath>
</defs>
</svg>
